Coordinates
version=1
nRows=17
nColumns=40
inDegrees=yes

Units are S.I. units (second, meters, Newtons, ...)
Angles are in degrees.

endheader
time	pelvis_tilt	pelvis_list	pelvis_rotation	pelvis_tx	pelvis_ty	pelvis_tz	hip_flexion_r	hip_adduction_r	hip_rotation_r	knee_angle_r	knee_angle_r_beta	ankle_angle_r	subtalar_angle_r	mtp_angle_r	hip_flexion_l	hip_adduction_l	hip_rotation_l	knee_angle_l	knee_angle_l_beta	ankle_angle_l	subtalar_angle_l	mtp_angle_l	lumbar_extension	lumbar_bending	lumbar_rotation	arm_flex_r	arm_add_r	arm_rot_r	elbow_flex_r	pro_sup_r	wrist_flex_r	wrist_dev_r	arm_flex_l	arm_add_l	arm_rot_l	elbow_flex_l	pro_sup_l	wrist_flex_l	wrist_dev_l
     18.96750000	     -2.92917692	     -4.81003514	     -2.12628283	      1.03586785	      0.93551143	      0.41408713	     35.55440612	     -5.60362480	     -6.47884117	     55.41571944	     55.41571944	     -0.34095179	    -12.60782920	      0.11419280	     10.50614369	     -5.12833087	     -9.73237010	     19.58173958	     19.58173958	     13.61583965	     -9.79285184	     -2.36556939	    -12.50338638	      5.72259610	      2.11188029	      0.23516758	    -14.54266300	     -0.26656211	     56.21921026	     46.03910534	      0.00000000	      0.00000000	     17.42647644	    -15.90202985	      8.53970181	     61.17230902	     45.99476320	      0.00000000	      0.00000000
     18.97900000	     -2.97278985	     -4.88478494	     -2.41945783	      1.03532078	      0.93562294	      0.41382401	     35.60242020	     -5.31264742	     -6.72482292	     51.63665497	     51.63665497	     -0.51336427	    -11.72190998	     -0.24450801	      9.63756352	     -5.14308384	    -10.07633082	     18.95386646	     18.95386646	     13.72875548	     -9.58867653	     -2.87004064	    -12.54104241	      5.81854213	      1.86321139	      0.05420880	    -14.35313662	     -0.68726846	     50.27153772	     46.22478524	      0.00000000	      0.00000000	     18.16915186	    -16.68274870	      8.05615309	     64.17495110	     46.14848255	      0.00000000	      0.00000000
     18.99050000	     -3.14401119	     -4.82707176	     -2.70739124	      1.03484832	      0.93544218	      0.41354481	     35.64975125	     -5.13459410	     -6.98412266	     47.58064213	     47.58064213	     -0.71908125	    -10.62706941	     -0.50944198	      8.84253174	     -5.01395280	    -10.53241416	     18.19243061	     18.19243061	     13.80821015	     -9.16889987	     -3.33669372	    -12.43238900	      5.82011622	      1.83907120	     -0.77323700	    -14.42791186	     -0.91706019	     45.55121028	     46.36313393	      0.00000000	      0.00000000	     19.02223515	    -17.04589251	      7.49609624	     66.94860682	     46.29580665	      0.00000000	      0.00000000
     19.00200000	     -3.14515501	     -4.87534488	     -2.96089241	      1.03463790	      0.93533787	      0.41344350	     35.25331266	     -4.83871722	     -7.48713211	     43.16440678	     43.16440678	     -0.64589757	     -9.19584050	     -0.14357700	      7.90548333	     -4.97742738	    -10.82007286	     17.57202787	     17.57202787	     14.13330857	     -8.93559332	     -3.49443786	    -12.49672312	      5.93107846	      2.28500659	     -2.56440277	    -14.90134466	     -0.88622077	     43.54208768	     46.41657313	      0.00000000	      0.00000000	     20.43833220	    -17.17057826	      7.01338965	     68.72278835	     46.37758022	      0.00000000	      0.00000000
     19.01350000	     -3.20063203	     -4.66909893	     -3.23286798	      1.03461365	      0.93494592	      0.41338080	     34.80186847	     -4.73511653	     -7.88832244	     38.55892308	     38.55892308	     -0.93805454	     -7.61006344	     -0.88373658	      6.91498341	     -4.69757177	    -11.45761963	     16.72424928	     16.72424928	     14.08651470	     -8.26731884	     -4.54824034	    -12.45549763	      5.70022957	      1.76527103	     -2.12845385	    -14.43686623	     -1.59323320	     36.83087303	     46.65683194	      0.00000000	      0.00000000	     20.60894234	    -18.24807671	      6.26999052	     72.74825513	     46.56912796	      0.00000000	      0.00000000
     19.02500000	     -3.27918589	     -4.54447441	     -3.44275643	      1.03476488	      0.93442283	      0.41335431	     34.17438071	     -4.52230089	     -8.48714941	     33.77004805	     33.77004805	     -0.94629464	     -5.68618533	     -0.29386716	      5.97513238	     -4.45861801	    -11.80243997	     15.94244907	     15.94244907	     14.33934815	     -7.84309491	     -4.72125765	    -12.38362417	      5.65272448	      2.11642214	     -4.01878185	    -14.78531730	     -1.58992044	     35.26792677	     46.69360328	      0.00000000	      0.00000000	     21.84215398	    -18.23553085	      5.70115586	     74.53342832	     46.65782052	      0.00000000	      0.00000000
     19.03650000	     -3.32424819	     -4.34940564	     -3.62546505	      1.03519006	      0.93370962	      0.41340214	     33.38314488	     -4.34278691	     -9.19787177	     28.94851207	     28.94851207	     -1.00835107	     -3.50179985	      0.49472453	      4.96161881	     -4.14637176	    -12.22786846	     15.11849882	     15.11849882	     14.60425602	     -7.23244668	     -5.04515400	    -12.27749657	      5.51745045	      2.35984677	     -5.78890245	    -14.99913422	     -1.60264511	     33.63813079	     46.73692278	      0.00000000	      0.00000000	     22.90962273	    -18.34614750	      5.26572638	     76.54758668	     46.73836376	      0.00000000	      0.00000000
     19.04800000	     -3.27933295	     -3.99799793	     -3.78533955	      1.03594018	      0.93276672	      0.41351608	     32.55308807	     -4.36238920	    -10.11756331	     24.55268290	     24.55268290	     -0.57250095	     -0.68796534	      2.45353627	      3.75871968	     -3.66765737	    -12.90128873	     14.10207798	     14.10207798	     14.48739914	     -6.37947992	     -6.43353956	    -12.26004298	      5.14349673	      1.65415554	     -5.95177089	    -14.70902014	     -2.15739866	     29.57656977	     46.87323363	      0.00000000	      0.00000000	     22.72077840	    -19.28638131	      3.89984915	     80.77027217	     46.99517414	      0.00000000	      0.00000000
     19.05950000	     -3.19475683	     -3.66802544	     -3.89489522	      1.03696214	      0.93168241	      0.41373504	     31.57311758	     -4.28730600	    -11.07275842	     20.31382823	     20.31382823	     -0.40106499	      1.88827310	      4.08147886	      2.54161131	     -3.18521064	    -13.32275276	     13.19535626	     13.19535626	     14.77878433	     -5.62159186	     -6.78735997	    -12.21825660	      4.83631169	      1.88746368	     -7.83956252	    -14.80944378	     -2.18150594	     28.59728055	     46.88123734	      0.00000000	      0.00000000	     23.73985877	    -19.38941664	      3.46888246	     82.76805428	     47.08896895	      0.00000000	      0.00000000
     19.07100000	     -3.20129598	     -3.37341504	     -3.92908910	      1.03810503	      0.93021480	      0.41410945	     30.71469891	     -4.10231904	    -11.85692743	     16.53544876	     16.53544876	     -0.42629575	      3.77697912	      5.62106559	      1.54608062	     -2.77298182	    -13.58292154	     12.51486259	     12.51486259	     15.14621370	     -5.06148869	     -7.10843165	    -12.00330869	      4.56897133	      1.92594753	     -9.64937467	    -14.85646712	     -2.18315890	     27.87689601	     46.88766519	      0.00000000	      0.00000000	     24.60826517	    -19.58294539	      3.14387025	     84.41138916	     47.15517268	      0.00000000	      0.00000000
     19.08250000	     -3.06528839	     -3.07468955	     -3.95205361	      1.03948715	      0.92883302	      0.41451260	     30.09461373	     -4.13432311	    -13.13402582	     14.18012096	     14.18012096	      1.52344858	      6.42089743	     11.97340175	      0.28092037	     -2.34583700	    -14.02049638	     11.62976184	     11.62976184	     15.27763196	     -4.15981769	     -8.03562242	    -12.01060093	      4.29449385	      1.61332951	    -11.37479713	    -14.93901993	     -2.31912829	     27.73155268	     46.82537776	      0.00000000	      0.00000000	     24.72098038	    -20.16473316	      2.26526566	     87.75267232	     47.37091308	      0.00000000	      0.00000000
     19.09400000	     -2.94380734	     -2.78496865	     -3.90392463	      1.04105430	      0.92720850	      0.41507145	     29.34129862	     -4.03796278	    -13.96703333	     11.96551594	     11.96551594	      1.59398536	      7.75652328	     12.88090598	     -0.85713550	     -1.94139205	    -14.16242831	     10.98784321	     10.98784321	     15.71650356	     -3.58147576	     -8.20080733	    -11.88357905	      4.02372488	      1.73954223	    -13.22459526	    -14.93380066	     -2.27616833	     27.19639187	     46.81812425	      0.00000000	      0.00000000	     25.57605387	    -20.20769477	      1.99805682	     89.29802149	     47.43546984	      0.00000000	      0.00000000
     19.10550000	     -2.89674128	     -2.49769278	     -3.83755740	      1.04263527	      0.92539354	      0.41578219	     28.82303152	     -4.00037697	    -14.68230996	     10.62017927	     10.62017927	      1.76365061	      8.70557852	     13.56000366	     -1.84360417	     -1.57816957	    -14.28055904	     10.47266028	     10.47266028	     16.16487574	     -3.03230844	     -8.35213138	    -11.67524310	      3.73202364	      1.78777622	    -15.00518663	    -14.83521516	     -2.28947273	     26.92088534	     46.80598204	      0.00000000	      0.00000000	     26.30726290	    -20.35146248	      1.70612830	     90.94586652	     47.50072475	      0.00000000	      0.00000000
     19.11700000	     -2.77253582	     -2.32033581	     -3.70611993	      1.04434334	      0.92366415	      0.41655706	     28.34033646	     -3.96595548	    -15.38046106	     10.12897767	     10.12897767	      2.01350217	      9.27628903	     13.93860635	     -2.87796910	     -1.36152428	    -14.35832784	     10.05665842	     10.05665842	     16.70610946	     -2.43065279	     -8.40933701	    -11.58972277	      3.58574989	      1.79745199	    -16.84788902	    -14.81479267	     -2.40520246	     27.02258205	     46.78172987	      0.00000000	      0.00000000	     26.74920252	    -20.46830452	      1.40669078	     92.92050503	     47.57549814	      0.00000000	      0.00000000
     19.12850000	     -2.73369205	     -2.18462408	     -3.54102523	      1.04604358	      0.92179907	      0.41750806	     28.04148116	     -3.93951955	    -15.74990728	     10.32444587	     10.32444587	      2.12110513	      9.17320749	     13.63673817	     -3.67904379	     -1.25122933	    -14.35714638	      9.92402517	      9.92402517	     17.34754709	     -1.95442530	     -8.29436899	    -11.39458190	      3.48029464	      1.69054835	    -18.58650340	    -14.75706269	     -2.59419775	     27.41091810	     46.74997477	      0.00000000	      0.00000000	     27.03764552	    -20.63631560	      0.99510046	     94.79200787	     47.65719323	      0.00000000	      0.00000000
     19.14000000	     -2.80169826	     -2.15366976	     -3.30591242	      1.04772300	      0.91995486	      0.41859446	     27.68311736	     -3.82072138	    -16.00636807	     10.63486378	     10.63486378	      2.07775260	      8.84664375	     13.51409544	     -4.26132288	     -1.29982373	    -14.16068022	      9.95983125	      9.95983125	     17.85237052	     -1.90224539	     -8.41393939	    -10.95240962	      3.48998143	      1.28330786	    -19.73874441	    -14.71305503	     -2.62602349	     27.12064160	     46.75245950	      0.00000000	      0.00000000	     27.36035668	    -20.90902918	      0.75985185	     95.14215317	     47.68254762	      0.00000000	      0.00000000
     19.15150000	     -2.67578355	     -2.16069324	     -3.04727488	      1.04968028	      0.91811552	      0.41987777	     27.34393712	     -3.67584993	    -15.45307453	     11.64807545	     11.64807545	      0.80404835	      7.05419098	      8.83148306	     -4.88157585	     -1.51525094	    -14.38363754	     10.49760946	     10.49760946	     19.33282007	     -0.79728949	     -6.78714232	    -10.99430345	      3.55925601	      0.94284282	    -21.80069819	    -14.70242137	     -3.53737122	     29.62099803	     46.65369578	      0.00000000	      0.00000000	     26.74246578	    -21.26937514	     -0.42554885	     98.58858781	     47.87751618	      0.00000000	      0.00000000
